# xmcd CD database file
#
# Track frame offsets:
#	150
#	18474
#	34049
#	50014
#	66271
#	123829
#	124514
#	125087
#	134614
#	153655
#	169251
#	185589
#	202327
#	218647
#	237718
#	257496
#	274346
#	294361
#	312300
#	328415
#
# Disc length: 4399 seconds
#
# Revision: 0
# Processed by: cddbd v1.5.2PL0 Copyright (c) Steve Scherf et al.
# Submitted via: CDex 1.51
#
DISCID=46112d14
DTITLE=Twain, Shania - Come on over
DYEAR=1900
DGENRE=Country
TTITLE0=Man I feel like a woman
TTITLE1=I´m holdin´ on to love
TTITLE2=Love gets me every time
TTITLE3=Don´t be stupid
TTITLE4=From this moment on
TTITLE5=Come on over
TTITLE6=When
TTITLE7=Whatever you do! Don´t
TTITLE8=If you wanna touch her, ask
TTITLE9=You´re still the one
TTITLE10=Honey, I´m home
TTITLE11=That don´t impress me much
TTITLE12=Black eyes, blue tears
TTITLE13=I wont leave you lonely
TTITLE14=Rock this country
TTITLE15=You´ve got a way
TTITLE16=I´m outta here
TTITLE17=You win my love
TTITLE18=You´re still the one
TTITLE19=Honey I´m home
EXTD=
EXTT0=
EXTT1=
EXTT2=
EXTT3=
EXTT4=
EXTT5=
EXTT6=
EXTT7=
EXTT8=
EXTT9=
EXTT10=
EXTT11=
EXTT12=
EXTT13=
EXTT14=
EXTT15=
EXTT16=
EXTT17=
EXTT18=
EXTT19=
PLAYORDER=
